<?xml version="1.0" encoding="UTF-8" standalone="no"?>
<svg
   xmlns:dc="http://purl.org/dc/elements/1.1/"
   xmlns:cc="http://creativecommons.org/ns#"
   xmlns:rdf="http://www.w3.org/1999/02/22-rdf-syntax-ns#"
   xmlns:svg="http://www.w3.org/2000/svg"
   xmlns="http://www.w3.org/2000/svg"
   xmlns:sodipodi="http://sodipodi.sourceforge.net/DTD/sodipodi-0.dtd"
   xmlns:inkscape="http://www.inkscape.org/namespaces/inkscape"
   id="svg8"
   version="1.1"
   viewBox="0 0 39.687 39.687"
   height="150"
   width="150"
   sodipodi:docname="vtuber-twitter.svg"
   inkscape:version="0.92.1 r15371"
   inkscape:export-filename="C:\Project\GitHub\vtuber-games.github.io\image\vtuber-twitter.png"
   inkscape:export-xdpi="921.59998"
   inkscape:export-ydpi="921.59998">
  <sodipodi:namedview
     pagecolor="#969664"
     bordercolor="#666666"
     borderopacity="1"
     objecttolerance="10"
     gridtolerance="10"
     guidetolerance="10"
     inkscape:pageopacity="0"
     inkscape:pageshadow="2"
     inkscape:window-width="1141"
     inkscape:window-height="848"
     id="namedview14"
     showgrid="false"
     showguides="true"
     inkscape:zoom="2.7812867"
     inkscape:cx="96.312184"
     inkscape:cy="55.38897"
     inkscape:window-x="663"
     inkscape:window-y="29"
     inkscape:window-maximized="0"
     inkscape:current-layer="svg8"
     fit-margin-top="10"
     fit-margin-bottom="10"
     fit-margin-right="10"
     fit-margin-left="10" />
  <defs
     id="defs2">
    <inkscape:perspective
       sodipodi:type="inkscape:persp3d"
       inkscape:vp_x="0 : 7.9374 : 1"
       inkscape:vp_y="0 : 1000 : 0"
       inkscape:vp_z="31.7496 : 7.9374 : 1"
       inkscape:persp3d-origin="15.8748 : 5.2916 : 1"
       id="perspective4539" />
  </defs>
  <metadata
     id="metadata5">
    <rdf:RDF>
      <cc:Work
         rdf:about="">
        <dc:format>image/svg+xml</dc:format>
        <dc:type
           rdf:resource="http://purl.org/dc/dcmitype/StillImage" />
        <dc:title></dc:title>
        <cc:license
           rdf:resource="" />
      </cc:Work>
    </rdf:RDF>
  </metadata>
  <rect
     id="rect31"
     width="39.687"
     height="39.687"
     x="-1.3877788e-017"
     y="0.00050071528"
     style="fill:#ffffff;fill-opacity:1;stroke-width:0.33072498"
     ry="0" />
  <g
     transform="matrix(1.2999836,0,0,1.2999836,-14.551898,-349.57222)"
     id="layer1">
    <g
       id="text3709"
       style="font-style:normal;font-weight:normal;font-size:33.80483246px;line-height:1.25;font-family:sans-serif;letter-spacing:0px;word-spacing:0px;fill:#fa4646;fill-opacity:1;stroke:none;stroke-width:0.84512061"
       transform="matrix(0.06581087,0,0,0.06832505,11.670192,263.53345)"
       aria-label="V">
      <path
         id="path4533"
         style="font-style:normal;font-variant:normal;font-weight:bold;font-stretch:normal;font-size:162.26316833px;line-height:1.25;font-family:Meiryo;-inkscape-font-specification:'Meiryo Bold';fill:#fa4646;fill-opacity:1;stroke-width:0.84512061"
         d="M 140.94919,117.32368 95.629597,236.72339 H 68.929066 L 23.6887,117.32368 h 21.62984 l 37.475859,69.25183 37.396431,-69.25183 z"
         inkscape:connector-curvature="0" />
    </g>
    <g
       id="text4518"
       style="font-style:normal;font-variant:normal;font-weight:bold;font-stretch:normal;font-size:15.67390347px;line-height:1.25;font-family:Meiryo;-inkscape-font-specification:'Meiryo Bold';letter-spacing:0px;word-spacing:0px;fill:#282828;fill-opacity:1;stroke:none;stroke-width:0.39184755"
       transform="matrix(0.08848527,0,0,0.12107796,4.0947412,255.74659)"
       aria-label="tuber">
      <path
         id="path4538"
         style="font-style:normal;font-variant:normal;font-weight:bold;font-stretch:normal;font-size:75.23473358px;font-family:Meiryo;-inkscape-font-specification:'Meiryo Bold';fill:#ffaa00;fill-opacity:1;stroke-width:0.39184755"
         d="m 218.56646,197.68792 q -4.51849,1.10207 -9.66149,1.10207 -7.60429,0 -11.13092,-3.23274 -3.52663,-3.26948 -3.52663,-10.54315 v -22.15163 h -5.58383 v -7.45735 h 5.62057 v -11.93911 h 11.24113 v 11.93911 h 13.04117 v 7.45735 h -13.04117 v 17.52293 q 0,6.75937 1.72657,8.81657 1.72658,2.0572 5.80425,2.0572 2.60823,0 5.17973,-1.28575 h 0.33062 z"
         inkscape:connector-curvature="0" />
      <path
         id="path4540"
         style="font-style:normal;font-variant:normal;font-weight:bold;font-stretch:normal;font-size:75.23473358px;font-family:Meiryo;-inkscape-font-specification:'Meiryo Bold';fill:#ffdc00;fill-opacity:1;stroke-width:0.39184755"
         d="m 265.0004,197.94507 h -11.27786 v -5.95119 c -3.42867,2.79191 -6.22058,4.67768 -8.37575,5.6573 -2.15516,0.97962 -4.39604,1.46943 -6.72263,1.46943 -8.96351,0 -13.44527,-5.25321 -13.44527,-15.75962 v -27.95587 h 11.35133 v 21.1965 c 0,5.92669 0.649,9.61251 1.947,11.05745 1.29799,1.44494 3.41642,2.16741 6.35527,2.16741 2.52252,0 5.48587,-1.10207 8.89005,-3.30622 v -25.22932 h 11.27786 z"
         inkscape:connector-curvature="0" />
      <path
         id="path4542"
         style="font-style:normal;font-variant:normal;font-weight:bold;font-stretch:normal;font-size:75.23473358px;font-family:Meiryo;-inkscape-font-specification:'Meiryo Bold';fill:#009600;fill-opacity:1;stroke-width:0.39184755"
         d="m 287.96022,194.93274 -0.73472,3.01233 h -10.57988 l -5.3e-4,-66.38518 h 11.27786 l 5.3e-4,29.53926 c 3.28173,-2.76742 5.95119,-4.6042 8.00839,-5.51035 2.08169,-0.90615 4.27358,-1.35923 6.57569,-1.35923 4.99605,0 8.8533,1.9225 11.57175,5.76751 2.74293,3.84501 4.1144,9.24516 4.1144,16.20045 0,6.80835 -1.73882,12.33095 -5.21647,16.5678 -3.47765,4.23685 -7.81246,6.35528 -13.00444,6.35528 -3.72255,0 -7.72675,-1.39596 -12.01258,-4.18787 z m 3.9344,-27.2775 v 19.66585 l 16.2689,-9.83292"
         inkscape:connector-curvature="0" />
      <path
         id="path4544"
         style="font-style:normal;font-variant:normal;font-weight:bold;font-stretch:normal;font-size:75.23473358px;font-family:Meiryo;-inkscape-font-specification:'Meiryo Bold';fill:#00dcff;fill-opacity:1;stroke-width:0.39184755"
         d="m 365.06848,178.43841 h -30.16002 q 0.73471,12.78402 14.51061,12.78402 7.2002,0 14.47387,-5.21647 h 0.40409 v 9.7717 q -8.63289,3.30622 -16.23719,3.30622 -11.97584,0 -18.25764,-5.69404 -6.28181,-5.69403 -6.28181,-16.42086 0,-10.65336 5.95119,-16.75149 5.95118,-6.13486 16.42086,-6.13486 19.17604,0 19.17604,20.38832 z m -11.27786,-6.39202 q -0.14695,-10.98397 -8.92678,-10.98397 -9.33087,0 -9.95538,10.98397 z"
         inkscape:connector-curvature="0" />
      <path
         id="path4546"
         style="font-style:normal;font-variant:normal;font-weight:bold;font-stretch:normal;font-size:75.23473358px;font-family:Meiryo;-inkscape-font-specification:'Meiryo Bold';fill:#3264c8;fill-opacity:1;stroke-width:0.39184755"
         d="m 402.24501,170.61977 h -0.36736 c -1.51841,-0.39185 -3.55112,-0.58777 -6.09813,-0.58777 -3.99195,0 -7.66552,0.63675 -11.02071,1.91026 v 54.05065 h -11.27786 v -68.41835 h 11.27786 v 9.26144 c 3.45315,-3.11029 6.29405,-5.19199 8.52268,-6.24508 2.22863,-1.07758 4.42053,-1.61637 6.5757,-1.61637 0.56328,0 1.35922,0.0245 2.38782,0.0735 z"
         inkscape:connector-curvature="0"
         sodipodi:nodetypes="ccscccccccscc" />
    </g>
  </g>
  <g
     aria-label="GAME.DEV.PROJ "
     transform="matrix(1.3637066,0,0,1.2392383,-0.79369419,-0.39663239)"
     style="font-style:normal;font-variant:normal;font-weight:normal;font-stretch:normal;font-size:2.71711683px;line-height:1.25;font-family:Meiryo;-inkscape-font-specification:Meiryo;letter-spacing:0px;word-spacing:0px;fill:#000000;fill-opacity:1;stroke:none;stroke-width:0.06792793"
     id="text18">
    <g
       aria-label="GAME.DEV.PROJ"
       transform="scale(0.81358961,1.2291209)"
       style="font-style:normal;font-variant:normal;font-weight:bold;font-stretch:normal;font-size:2.94561315px;line-height:1.25;font-family:Meiryo;-inkscape-font-specification:'Meiryo Bold';letter-spacing:0px;word-spacing:0px;fill:#000000;fill-opacity:1;stroke:none;stroke-width:0.00500223"
       id="text4543">
      <path
         d="m 6.6176513,12.23983 q -0.4372394,0.179786 -0.8241388,0.179786 -0.5379196,0 -0.8413983,-0.297726 -0.3020404,-0.297725 -0.3020404,-0.834207 0,-0.516345 0.3092318,-0.819824 0.3106702,-0.303478 0.8457132,-0.303478 0.4027205,0 0.8068794,0.191292 v 0.440116 h -0.05034 q -0.254577,-0.189854 -0.4156652,-0.240194 -0.1610883,-0.05178 -0.3106702,-0.05178 -0.3164233,0 -0.5019624,0.207114 -0.1841008,0.205675 -0.1841008,0.568124 0,0.39409 0.189854,0.601204 0.1912922,0.205675 0.5537407,0.205675 0.1395139,0 0.2603301,-0.03596 V 11.556643 H 5.6683815 v -0.345189 h 0.9492698 z"
         style="font-style:normal;font-variant:normal;font-weight:bold;font-stretch:normal;font-family:Meiryo;-inkscape-font-specification:'Meiryo Bold';fill:#fa4646;fill-opacity:1;stroke-width:0.00500223"
         id="path4545"
         inkscape:connector-curvature="0" />
      <path
         d="M 8.9865112,12.37359 H 8.4845488 L 8.320584,11.90327 H 7.4676794 L 7.3037146,12.37359 H 6.8233265 L 7.6417122,10.206091 H 8.1681255 Z M 8.2012061,11.566711 7.8948508,10.692232 7.5884956,11.566711 Z"
         style="font-style:normal;font-variant:normal;font-weight:bold;font-stretch:normal;font-family:Meiryo;-inkscape-font-specification:'Meiryo Bold';stroke-width:0.00500223"
         id="path4547"
         inkscape:connector-curvature="0" />
      <path
         d="M 11.411464,12.37359 H 10.942583 V 10.850444 L 10.475139,11.86156 H 10.160154 L 9.6927105,10.854759 V 12.37359 H 9.2525945 V 10.206091 H 9.784761 l 0.547988,1.152068 0.546549,-1.152068 h 0.532166 z"
         style="font-style:normal;font-variant:normal;font-weight:bold;font-stretch:normal;font-family:Meiryo;-inkscape-font-specification:'Meiryo Bold';stroke-width:0.00500223"
         id="path4549"
         inkscape:connector-curvature="0" />
      <path
         d="m 13.438011,12.37359 h -1.510202 v -2.167499 h 1.510202 v 0.359572 h -1.038443 v 0.463128 h 0.965091 v 0.358134 h -0.965091 v 0.627094 h 1.038443 z"
         style="font-style:normal;font-variant:normal;font-weight:bold;font-stretch:normal;font-family:Meiryo;-inkscape-font-specification:'Meiryo Bold';stroke-width:0.00500223"
         id="path4551"
         inkscape:connector-curvature="0" />
      <path
         d="M 14.3542,12.37359 H 13.863744 V 11.850054 H 14.3542 Z"
         style="font-style:normal;font-variant:normal;font-weight:bold;font-stretch:normal;font-family:Meiryo;-inkscape-font-specification:'Meiryo Bold';fill:#3264c8;fill-opacity:1;stroke-width:0.00500223"
         id="path4553"
         inkscape:connector-curvature="0" />
      <path
         d="m 14.879176,12.37359 v -2.167499 h 0.677433 q 0.460252,0 0.717706,0.11794 0.257453,0.117939 0.405597,0.362448 0.149582,0.244509 0.149582,0.605519 0,0.326491 -0.155335,0.586822 -0.153897,0.258891 -0.412789,0.376831 -0.258892,0.117939 -0.699008,0.117939 z m 0.474635,-1.826625 v 1.485751 h 0.233002 q 0.746472,0 0.746472,-0.745033 0,-0.740718 -0.746472,-0.740718 z"
         style="font-style:normal;font-variant:normal;font-weight:bold;font-stretch:normal;font-family:Meiryo;-inkscape-font-specification:'Meiryo Bold';fill:#ffaa00;fill-opacity:1;stroke-width:0.00500223"
         id="path4555"
         inkscape:connector-curvature="0" />
      <path
         d="m 18.719403,12.37359 h -1.510202 v -2.167499 h 1.510202 v 0.359572 H 17.68096 v 0.463128 h 0.965091 v 0.358134 H 17.68096 v 0.627094 h 1.038443 z"
         style="font-style:normal;font-variant:normal;font-weight:bold;font-stretch:normal;font-family:Meiryo;-inkscape-font-specification:'Meiryo Bold';stroke-width:0.00500223"
         id="path4557"
         inkscape:connector-curvature="0" />
      <path
         d="m 21.016349,10.206091 -0.822701,2.167499 h -0.484703 l -0.821262,-2.167499 h 0.499086 l 0.573876,1.583555 0.572439,-1.583555 z"
         style="font-style:normal;font-variant:normal;font-weight:bold;font-stretch:normal;font-family:Meiryo;-inkscape-font-specification:'Meiryo Bold';stroke-width:0.00500223"
         id="path4559"
         inkscape:connector-curvature="0" />
      <path
         d="m 21.350031,12.37359 h -0.490456 v -0.523536 h 0.490456 z"
         style="font-style:normal;font-variant:normal;font-weight:bold;font-stretch:normal;font-family:Meiryo;-inkscape-font-specification:'Meiryo Bold';fill:#3264c8;fill-opacity:1;stroke-width:0.00500223"
         id="path4561"
         inkscape:connector-curvature="0" />
      <path
         d="m 22.349641,11.635749 v 0.737841 h -0.474635 v -2.167499 h 0.819824 q 0.421419,0 0.640038,0.172594 0.21862,0.171157 0.21862,0.501963 0,0.345189 -0.241632,0.550864 -0.241633,0.204237 -0.62997,0.204237 z m -0.0029,-1.088784 v 0.745033 h 0.126569 q 0.356695,0 0.471758,-0.0978 0.116502,-0.09924 0.116502,-0.303479 0,-0.16828 -0.112187,-0.256015 -0.110748,-0.08774 -0.440116,-0.08774 z"
         style="font-style:normal;font-variant:normal;font-weight:bold;font-stretch:normal;font-family:Meiryo;-inkscape-font-specification:'Meiryo Bold';fill:#009600;fill-opacity:1;stroke-width:0.00500223"
         id="path4563"
         inkscape:connector-curvature="0" />
      <path
         d="m 25.899336,12.37359 h -0.586821 l -0.635723,-0.821262 h -0.302041 v 0.821262 h -0.474635 v -2.167499 h 0.829892 q 0.451623,0 0.650107,0.161088 0.199921,0.15965 0.199921,0.434363 0,0.430048 -0.432924,0.637161 z m -1.527461,-1.826625 v 0.674557 h 0.212866 q 0.306356,0 0.405598,-0.102118 0.09924,-0.102119 0.09924,-0.267522 0,-0.146705 -0.09493,-0.225811 -0.09493,-0.07911 -0.373954,-0.07911 z"
         style="font-style:normal;font-variant:normal;font-weight:bold;font-stretch:normal;font-family:Meiryo;-inkscape-font-specification:'Meiryo Bold';stroke-width:0.00500223"
         id="path4565"
         inkscape:connector-curvature="0" />
      <path
         d="m 27.031268,12.419616 q -0.494771,0 -0.778113,-0.300602 -0.281905,-0.302041 -0.281905,-0.827016 0,-0.527851 0.280466,-0.828454 0.281905,-0.30204 0.779552,-0.30204 0.49621,0 0.778114,0.30204 0.283343,0.302041 0.283343,0.828454 0,0.522099 -0.281905,0.825577 -0.280466,0.302041 -0.779552,0.302041 z m 0.0014,-1.9158 q -0.257454,0 -0.409912,0.205676 -0.152459,0.205675 -0.152459,0.582506 0,0.375393 0.152459,0.581068 0.152458,0.204237 0.409912,0.204237 0.256015,0 0.408473,-0.205675 0.152459,-0.207113 0.152459,-0.581068 0,-0.375393 -0.152459,-0.581068 -0.15102,-0.205676 -0.408473,-0.205676 z"
         style="font-style:normal;font-variant:normal;font-weight:bold;font-stretch:normal;font-family:Meiryo;-inkscape-font-specification:'Meiryo Bold';stroke-width:0.00500223"
         id="path4567"
         inkscape:connector-curvature="0" />
      <path
         d="m 29.450468,11.758003 q 0,0.302041 -0.202798,0.474635 -0.202799,0.172595 -0.566686,0.172595 -0.240194,0 -0.473196,-0.04603 v -0.382585 h 0.04027 q 0.198483,0.07335 0.335121,0.07335 0.13376,0 0.220058,-0.03596 0.08773,-0.0374 0.129446,-0.119378 0.04315,-0.08198 0.04315,-0.353819 V 10.55128 h -0.483264 v -0.345189 h 0.957899 z"
         style="font-style:normal;font-variant:normal;font-weight:bold;font-stretch:normal;font-family:Meiryo;-inkscape-font-specification:'Meiryo Bold';stroke-width:0.00500223"
         id="path4569"
         inkscape:connector-curvature="0" />
    </g>
  </g>
  <text
     xml:space="preserve"
     style="font-style:normal;font-variant:normal;font-weight:normal;font-stretch:normal;font-size:4.62107944px;line-height:1.25;font-family:Meiryo;-inkscape-font-specification:Meiryo;letter-spacing:0px;word-spacing:0px;fill:#000000;fill-opacity:1;stroke:none;stroke-width:0.34658098"
     x="2.6412835"
     y="25.686733"
     id="text842"
     transform="scale(1.0000014,0.99999861)"><tspan
       sodipodi:role="line"
       id="tspan840"
       x="2.6412835"
       y="25.686733"
       style="font-size:2.77264786px;stroke-width:0.34658098"><tspan
         style="font-style:normal;font-variant:normal;font-weight:bold;font-stretch:normal;font-size:3.69686365px;font-family:Meiryo;-inkscape-font-specification:'Meiryo Bold';fill:#3264c8;fill-opacity:1;stroke-width:0.34658098"
         id="tspan854">Vtuber</tspan><tspan
         style="font-size:1.84843183px;fill:#009600;fill-opacity:1;stroke-width:0.34658098"
         id="tspan846">さん</tspan><tspan
         style="font-size:1.84843183px;fill:#009600;fill-opacity:1;stroke-width:0.34658098"
         id="tspan900">を</tspan></tspan><tspan
       sodipodi:role="line"
       x="2.6412835"
       y="31.463083"
       style="font-size:2.77264786px;stroke-width:0.34658098"
       id="tspan844"><tspan
         style="font-style:normal;font-variant:normal;font-weight:bold;font-stretch:normal;font-size:4.62107944px;font-family:Meiryo;-inkscape-font-specification:'Meiryo Bold';fill:#3264c8;fill-opacity:1;stroke-width:0.34658098"
         id="tspan852"><tspan
           style="font-style:normal;font-variant:normal;font-weight:bold;font-stretch:normal;font-family:Meiryo;-inkscape-font-specification:'Meiryo Bold';fill:#fa4646;fill-opacity:1;stroke-width:0.34658098"
           id="tspan892">ゲーム</tspan><tspan
           style="font-style:normal;font-variant:normal;font-weight:bold;font-stretch:normal;font-family:Meiryo;-inkscape-font-specification:'Meiryo Bold';fill:#ffaa00;fill-opacity:1;stroke-width:0.34658098"
           id="tspan894">化</tspan></tspan><tspan
         style="fill:#009600;fill-opacity:1;stroke-width:0.34658098"
         id="tspan898">したいだけ</tspan></tspan></text>
  <text
     xml:space="preserve"
     style="font-style:normal;font-variant:normal;font-weight:normal;font-stretch:normal;font-size:4.62107944px;line-height:1.25;font-family:Meiryo;-inkscape-font-specification:Meiryo;letter-spacing:0px;word-spacing:0px;fill:#fa4646;fill-opacity:1;stroke:none;stroke-width:0.34658098"
     x="19.191525"
     y="30.602549"
     id="text860"
     transform="matrix(0.98793606,-0.15487068,0.1548711,0.98793338,0,0)"><tspan
       sodipodi:role="line"
       id="tspan858"
       x="19.191525"
       y="30.602549"
       style="font-style:normal;font-variant:normal;font-weight:bold;font-stretch:normal;font-family:Meiryo;-inkscape-font-specification:'Meiryo Bold';fill:#fa4646;fill-opacity:1;stroke-width:0.34658098">開発中</tspan></text>
  <text
     xml:space="preserve"
     style="font-style:normal;font-variant:normal;font-weight:normal;font-stretch:normal;font-size:1.41109335px;line-height:1.25;font-family:Meiryo;-inkscape-font-specification:Meiryo;letter-spacing:0px;word-spacing:0px;fill:#c8c8c8;fill-opacity:1;stroke:none;stroke-width:0.26458001"
     x="11.742805"
     y="36.610226"
     id="text904"><tspan
       sodipodi:role="line"
       id="tspan902"
       x="11.742805"
       y="36.610226"
       style="font-size:2.11664009px;fill:#c8c8c8;fill-opacity:1;stroke-width:0.26458001">そーぽす@sopos_lycaon</tspan><tspan
       sodipodi:role="line"
       x="11.742805"
       y="38.548412"
       style="fill:#c8c8c8;fill-opacity:1;stroke-width:0.26458001"
       id="tspan908" /></text>
</svg>
