<?xml version="1.0" encoding="UTF-8" standalone="no"?>
<svg
   xmlns:dc="http://purl.org/dc/elements/1.1/"
   xmlns:cc="http://creativecommons.org/ns#"
   xmlns:rdf="http://www.w3.org/1999/02/22-rdf-syntax-ns#"
   xmlns:svg="http://www.w3.org/2000/svg"
   xmlns="http://www.w3.org/2000/svg"
   xmlns:sodipodi="http://sodipodi.sourceforge.net/DTD/sodipodi-0.dtd"
   xmlns:inkscape="http://www.inkscape.org/namespaces/inkscape"
   id="svg8"
   version="1.1"
   viewBox="0 0 31.7496 15.8748"
   height="60"
   width="120"
   sodipodi:docname="icon.svg"
   inkscape:version="0.92.1 r15371">
  <sodipodi:namedview
     pagecolor="#ffffff"
     bordercolor="#666666"
     borderopacity="1"
     objecttolerance="10"
     gridtolerance="10"
     guidetolerance="10"
     inkscape:pageopacity="0"
     inkscape:pageshadow="2"
     inkscape:window-width="1450"
     inkscape:window-height="480"
     id="namedview14"
     showgrid="false"
     inkscape:zoom="3.9333333"
     inkscape:cx="60"
     inkscape:cy="19.830508"
     inkscape:window-x="0"
     inkscape:window-y="0"
     inkscape:window-maximized="0"
     inkscape:current-layer="svg8" />
  <defs
     id="defs2" />
  <metadata
     id="metadata5">
    <rdf:RDF>
      <cc:Work
         rdf:about="">
        <dc:format>image/svg+xml</dc:format>
        <dc:type
           rdf:resource="http://purl.org/dc/dcmitype/StillImage" />
        <dc:title></dc:title>
        <cc:license
           rdf:resource="" />
      </cc:Work>
    </rdf:RDF>
  </metadata>
  <g
     transform="translate(-10.583333,-267.89583)"
     id="layer1">
    <g
       id="text3709"
       style="font-style:normal;font-weight:normal;font-size:33.80483246px;line-height:1.25;font-family:sans-serif;letter-spacing:0px;word-spacing:0px;fill:#fa4646;fill-opacity:1;stroke:none;stroke-width:0.84512061"
       transform="matrix(0.06581087,0,0,0.06832505,11.670192,263.53345)"
       aria-label="V">
      <path
         id="path4533"
         style="font-style:normal;font-variant:normal;font-weight:bold;font-stretch:normal;font-size:162.26316833px;line-height:1.25;font-family:Meiryo;-inkscape-font-specification:'Meiryo Bold';fill:#fa4646;fill-opacity:1;stroke-width:0.84512061"
         d="M 140.94919,117.32368 95.629597,236.72339 H 68.929066 L 23.6887,117.32368 h 21.62984 l 37.475859,69.25183 37.396431,-69.25183 z" />
    </g>
    <g
       id="text4518"
       style="font-style:normal;font-variant:normal;font-weight:bold;font-stretch:normal;font-size:15.67390347px;line-height:1.25;font-family:Meiryo;-inkscape-font-specification:'Meiryo Bold';letter-spacing:0px;word-spacing:0px;fill:#282828;fill-opacity:1;stroke:none;stroke-width:0.39184755"
       transform="matrix(0.08848527,0,0,0.12107796,4.0947412,255.74659)"
       aria-label="tuber">
      <path
         id="path4538"
         style="font-style:normal;font-variant:normal;font-weight:bold;font-stretch:normal;font-size:75.23473358px;font-family:Meiryo;-inkscape-font-specification:'Meiryo Bold';fill:#ffaa00;fill-opacity:1;stroke-width:0.39184755"
         d="m 218.56646,197.68792 q -4.51849,1.10207 -9.66149,1.10207 -7.60429,0 -11.13092,-3.23274 -3.52663,-3.26948 -3.52663,-10.54315 v -22.15163 h -5.58383 v -7.45735 h 5.62057 v -11.93911 h 11.24113 v 11.93911 h 13.04117 v 7.45735 h -13.04117 v 17.52293 q 0,6.75937 1.72657,8.81657 1.72658,2.0572 5.80425,2.0572 2.60823,0 5.17973,-1.28575 h 0.33062 z" />
      <path
         id="path4540"
         style="font-style:normal;font-variant:normal;font-weight:bold;font-stretch:normal;font-size:75.23473358px;font-family:Meiryo;-inkscape-font-specification:'Meiryo Bold';fill:#ffdc00;fill-opacity:1;stroke-width:0.39184755"
         d="m 265.0004,197.94507 h -11.27786 v -5.95119 c -3.42867,2.79191 -6.22058,4.67768 -8.37575,5.6573 -2.15516,0.97962 -4.39604,1.46943 -6.72263,1.46943 -8.96351,0 -13.44527,-5.25321 -13.44527,-15.75962 v -27.95587 h 11.35133 v 21.1965 c 0,5.92669 0.649,9.61251 1.947,11.05745 1.29799,1.44494 3.41642,2.16741 6.35527,2.16741 2.52252,0 5.48587,-1.10207 8.89005,-3.30622 v -25.22932 h 11.27786 z" />
      <path
         id="path4542"
         style="font-style:normal;font-variant:normal;font-weight:bold;font-stretch:normal;font-size:75.23473358px;font-family:Meiryo;-inkscape-font-specification:'Meiryo Bold';fill:#009600;fill-opacity:1;stroke-width:0.39184755"
         d="m 287.96022,194.93274 -0.73472,3.01233 h -10.57988 l -5.3e-4,-66.38518 h 11.27786 l 5.3e-4,29.53926 c 3.28173,-2.76742 5.95119,-4.6042 8.00839,-5.51035 2.08169,-0.90615 4.27358,-1.35923 6.57569,-1.35923 4.99605,0 8.8533,1.9225 11.57175,5.76751 2.74293,3.84501 4.1144,9.24516 4.1144,16.20045 0,6.80835 -1.73882,12.33095 -5.21647,16.5678 -3.47765,4.23685 -7.81246,6.35528 -13.00444,6.35528 -3.72255,0 -7.72675,-1.39596 -12.01258,-4.18787 z m 3.9344,-27.2775 v 19.66585 l 16.2689,-9.83292" />
      <path
         id="path4544"
         style="font-style:normal;font-variant:normal;font-weight:bold;font-stretch:normal;font-size:75.23473358px;font-family:Meiryo;-inkscape-font-specification:'Meiryo Bold';fill:#00dcff;fill-opacity:1;stroke-width:0.39184755"
         d="m 365.06848,178.43841 h -30.16002 q 0.73471,12.78402 14.51061,12.78402 7.2002,0 14.47387,-5.21647 h 0.40409 v 9.7717 q -8.63289,3.30622 -16.23719,3.30622 -11.97584,0 -18.25764,-5.69404 -6.28181,-5.69403 -6.28181,-16.42086 0,-10.65336 5.95119,-16.75149 5.95118,-6.13486 16.42086,-6.13486 19.17604,0 19.17604,20.38832 z m -11.27786,-6.39202 q -0.14695,-10.98397 -8.92678,-10.98397 -9.33087,0 -9.95538,10.98397 z" />
      <path
         id="path4546"
         style="font-style:normal;font-variant:normal;font-weight:bold;font-stretch:normal;font-size:75.23473358px;font-family:Meiryo;-inkscape-font-specification:'Meiryo Bold';fill:#3264c8;fill-opacity:1;stroke-width:0.39184755"
         d="m 402.24501,170.61977 h -0.36736 c -1.51841,-0.39185 -3.55112,-0.58777 -6.09813,-0.58777 -3.99195,0 -7.66552,0.63675 -11.02071,1.91026 v 37.66163 h -11.27786 v -52.02933 h 11.27786 v 9.26144 c 3.45315,-3.11029 6.29405,-5.19199 8.52268,-6.24508 2.22863,-1.07758 4.42053,-1.61637 6.5757,-1.61637 0.56328,0 1.35922,0.0245 2.38782,0.0735 z" />
    </g>
  </g>
</svg>
